<?xml version="1.0" encoding="UTF-8" standalone="no"?>
<svg width="3583.6917" height="319.03003" viewBox="0 0 948.18507 84.410028" version="1.1" xmlns="http://www.w3.org/2000/svg">
  <g transform="translate(588.18519,-879.99989)">
    <path
       style="font-size:144px;font-family:Lora;-inkscape-font-specification:Lora;text-align:justify;letter-spacing:-14.0646px;white-space:pre;fill:#60a5fa;stroke-width:0.472441;paint-order:stroke fill markers"
       d="m -4153.0866,-330.18176 q -9.648,0 -17.856,-4.32 -8.064,-4.464 -12.96,-12.672 -4.752,-8.352 -4.752,-20.016 0,-7.488 2.736,-14.544 2.736,-7.056 7.632,-12.672 5.04,-5.76 11.952,-9.072 6.912,-3.312 15.264,-3.312 8.064,0 13.968,2.448 6.048,2.448 9.36,6.48 3.312,4.032 3.312,8.784 0,3.168 -1.728,5.472 -1.728,2.16 -5.04,2.16 -3.6,0.144 -5.184,-2.16 -1.44,-2.448 -1.44,-4.32 0,-1.44 0.432,-2.88 0.432,-1.584 1.728,-2.88 -1.152,-3.456 -4.032,-5.04 -2.88,-1.728 -6.048,-2.16 -3.024,-0.576 -5.04,-0.576 -9.792,0 -16.56,7.92 -6.624,7.776 -6.624,22.752 0,9.648 3.024,17.136 3.168,7.488 8.784,11.808 5.616,4.176 12.96,4.176 6.768,0 12.96,-3.6 6.192,-3.6 9.648,-8.784 l 3.744,2.88 q -3.744,6.048 -9.072,9.792 -5.184,3.744 -10.8,5.472 -5.472,1.728 -10.368,1.728 z m 70.8952,-2.304 q -0.432,-2.448 -0.576,-4.32 -0.144,-1.872 -0.432,-3.888 -4.896,4.896 -10.656,7.776 -5.616,2.736 -11.952,2.736 -10.944,0 -16.272,-4.896 -5.328,-5.04 -5.328,-12.24 0,-6.624 4.032,-11.376 4.176,-4.896 10.656,-7.92 6.624,-3.168 14.256,-4.608 7.776,-1.584 14.976,-1.44 v -8.928 q 0,-5.04 -0.864,-9.504 -0.864,-4.464 -3.744,-7.344 -2.88,-2.88 -9.216,-3.024 -4.176,-0.144 -8.64,1.584 -4.32,1.728 -6.336,5.904 1.152,1.152 1.44,2.736 0.432,1.44 0.432,2.736 0,1.728 -1.44,4.032 -1.44,2.16 -5.04,2.016 -3.024,0 -4.608,-2.016 -1.584,-2.16 -1.584,-5.04 0,-4.896 3.6,-8.784 3.744,-3.888 10.224,-6.192 6.48,-2.304 14.688,-2.304 12.096,0 17.856,6.48 5.76,6.336 5.616,20.16 0,5.328 0,10.8 0,5.328 -0.144,10.8 0,5.328 0,10.8 0,2.304 -0.144,4.608 -0.144,2.304 -0.432,5.184 2.592,-0.144 5.04,-0.288 2.592,-0.144 5.184,-0.288 v 6.048 z m -1.296,-35.28 q -4.896,0.144 -10.368,1.296 -5.328,1.008 -9.936,3.168 -4.464,2.16 -7.344,5.76 -2.736,3.456 -2.592,8.496 0.288,5.328 3.456,8.064 3.312,2.592 7.776,2.592 5.904,0 10.224,-2.16 4.464,-2.304 8.784,-6.336 -0.144,-1.584 -0.144,-3.456 0,-1.872 0,-3.888 0,-0.72 0,-4.608 0.144,-3.888 0.144,-8.928 z m 16.3195,30.96 q 4.464,0 6.192,-2.16 1.728,-2.304 2.016,-6.192 0.288,-4.032 0.288,-9.216 v -68.112 q 0,-2.304 0,-4.32 0.144,-2.16 0.432,-5.04 -2.592,0.144 -5.184,0.288 -2.448,0.144 -5.04,0.288 v -6.048 q 6.336,0 9.792,-0.576 3.6,-0.576 5.328,-1.44 1.872,-0.864 2.88,-1.872 h 4.176 l 0.144,93.456 q 0,2.88 -0.144,5.184 -0.144,2.16 -0.576,4.608 2.304,-0.144 4.464,-0.144 2.304,-0.144 4.608,-0.288 v 5.904 h -29.376 z m 26.5433,4.32 v -4.32 q 4.464,0 6.192,-2.16 1.728,-2.304 2.016,-6.192 0.288,-4.032 0.288,-9.216 v -32.832 q 0,-2.304 0,-4.608 0.144,-2.304 0.576,-4.752 -2.592,0.144 -5.184,0.288 -2.448,0.144 -5.04,0.288 v -6.048 q 6.336,0 9.504,-0.576 3.312,-0.576 4.896,-1.44 1.584,-0.864 2.592,-1.872 h 4.176 q 0.288,1.44 0.288,3.312 0.144,1.872 0.288,4.32 4.32,-3.744 9.936,-6.048 5.616,-2.448 11.232,-2.448 7.2,0 12.096,2.592 4.896,2.592 7.632,7.056 4.896,-4.032 11.232,-6.768 6.48,-2.88 12.672,-2.88 12.528,0 18.432,7.632 5.904,7.488 5.616,24.624 l -0.144,26.784 q 0,2.88 -0.144,5.184 0,2.16 -0.432,4.608 2.304,-0.144 4.464,-0.144 2.304,-0.144 4.608,-0.288 v 5.904 h -29.376 v -4.32 q 4.464,0 6.192,-2.16 1.728,-2.304 2.016,-6.192 0.288,-4.032 0.288,-9.216 v -20.16 q 0,-12.384 -4.032,-18.576 -3.888,-6.192 -12.384,-6.048 -4.464,0 -8.928,2.016 -4.464,2.016 -7.776,5.04 0.72,2.304 1.008,5.04 0.432,2.592 0.432,5.472 -0.144,8.352 -0.144,16.848 0,8.496 -0.144,16.992 0,2.88 -0.144,5.184 0,2.16 -0.432,4.608 2.304,-0.144 4.464,-0.144 2.304,-0.144 4.608,-0.288 v 5.904 h -29.376 v -4.32 q 4.464,0 6.048,-2.16 1.728,-2.304 2.016,-6.192 0.432,-4.032 0.432,-9.216 l 0.144,-20.16 q 0.144,-12.384 -3.6,-18.72 -3.744,-6.336 -12.24,-6.192 -4.464,0 -8.784,2.016 -4.32,1.872 -7.344,4.896 0,1.728 0,3.744 0.144,1.872 0.144,4.032 v 37.008 q 0,2.88 -0.144,5.184 0,2.16 -0.432,4.608 2.304,-0.144 4.464,-0.144 2.304,-0.144 4.608,-0.288 v 5.904 z m 158.4473,0 q -0.432,-2.448 -0.576,-4.32 -0.144,-1.872 -0.432,-3.888 -4.896,4.896 -10.656,7.776 -5.616,2.736 -11.952,2.736 -10.944,0 -16.272,-4.896 -5.328,-5.04 -5.328,-12.24 0,-6.624 4.032,-11.376 4.176,-4.896 10.656,-7.92 6.624,-3.168 14.256,-4.608 7.776,-1.584 14.976,-1.44 v -8.928 q 0,-5.04 -0.864,-9.504 -0.864,-4.464 -3.744,-7.344 -2.88,-2.88 -9.216,-3.024 -4.176,-0.144 -8.64,1.584 -4.32,1.728 -6.336,5.904 1.152,1.152 1.44,2.736 0.432,1.44 0.432,2.736 0,1.728 -1.44,4.032 -1.44,2.16 -5.04,2.016 -3.024,0 -4.608,-2.016 -1.584,-2.16 -1.584,-5.04 0,-4.896 3.6,-8.784 3.744,-3.888 10.224,-6.192 6.48,-2.304 14.688,-2.304 12.096,0 17.856,6.48 5.76,6.336 5.616,20.16 0,5.328 0,10.8 0,5.328 -0.144,10.8 0,5.328 0,10.8 0,2.304 -0.144,4.608 -0.144,2.304 -0.432,5.184 2.592,-0.144 5.04,-0.288 2.592,-0.144 5.184,-0.288 v 6.048 z m -1.296,-35.28 q -4.896,0.144 -10.368,1.296 -5.328,1.008 -9.936,3.168 -4.464,2.16 -7.344,5.76 -2.736,3.456 -2.592,8.496 0.288,5.328 3.456,8.064 3.312,2.592 7.776,2.592 5.904,0 10.224,-2.16 4.464,-2.304 8.784,-6.336 -0.144,-1.584 -0.144,-3.456 0,-1.872 0,-3.888 0,-0.72 0,-4.608 0.144,-3.888 0.144,-8.928 z m 50.639,-39.744 q 0,-15.984 5.76,-25.2 5.904,-9.216 20.16,-9.216 3.168,0 6.624,1.152 3.6,1.008 6.192,3.456 2.592,2.304 2.592,6.048 0,2.736 -1.584,4.608 -1.44,1.872 -4.32,1.872 -3.456,0.144 -4.896,-2.016 -1.296,-2.304 -1.296,-3.888 0,-0.864 0.144,-1.728 0.144,-0.864 0.576,-1.872 -1.008,-1.296 -2.88,-1.872 -1.728,-0.576 -3.312,-0.576 -4.464,0 -6.912,2.592 -2.448,2.592 -3.456,6.48 -1.008,3.888 -1.008,8.064 v 15.12 h 19.44 v 5.616 l -19.44,0.432 0.144,50.688 q 0,2.88 -0.144,5.184 0,2.16 -0.432,4.608 2.304,-0.144 4.464,-0.144 2.304,-0.144 4.608,-0.288 v 5.904 h -29.376 v -4.32 q 4.464,0 6.192,-2.16 1.728,-2.304 2.016,-6.192 0.288,-4.032 0.288,-9.216 l -0.144,-43.92 -11.808,0.288 v -6.48 h 11.808 z m 55.9193,77.328 q -7.776,0 -13.104,-2.88 -5.184,-2.88 -7.92,-9.792 -2.592,-6.912 -2.592,-18.72 v -25.632 q 0,-2.304 0,-4.608 0.144,-2.304 0.576,-4.752 -2.448,0.144 -5.04,0.288 -2.448,0 -4.896,0.144 v -5.904 h 4.464 q 6.192,0 8.928,-1.152 2.88,-1.296 4.464,-2.736 h 4.176 v 43.92 q 0,12.384 3.456,18.576 3.6,6.048 12.096,5.904 5.472,-0.144 10.368,-3.312 5.04,-3.312 8.064,-7.776 v -37.008 q 0,-3.456 0.144,-5.904 0.144,-2.592 0.576,-5.04 -2.592,0.144 -5.184,0.288 -2.592,0 -5.184,0.144 v -5.904 h 4.464 q 6.192,0 8.928,-1.152 2.88,-1.296 4.464,-2.736 h 4.176 l -0.144,54.432 q 0,2.304 -0.144,6.48 -0.144,4.176 -0.432,7.056 2.592,-0.144 5.184,-0.288 2.592,-0.144 5.184,-0.288 v 6.048 h -20.592 q -0.432,-2.448 -0.72,-4.608 -0.144,-2.16 -0.288,-4.032 -4.464,4.464 -10.8,7.776 -6.336,3.168 -12.672,3.168 z m 17.856,-90.288 q -2.88,0 -5.04,-2.448 -2.16,-2.448 -2.16,-6.048 0,-3.6 2.16,-6.048 2.304,-2.592 5.04,-2.592 3.168,0 5.184,2.592 2.016,2.448 2.016,6.048 0,3.6 -2.16,6.048 -2.16,2.448 -5.04,2.448 z m -24.048,0 q -2.88,0 -5.04,-2.448 -2.16,-2.448 -2.16,-6.048 0,-3.6 2.16,-6.048 2.304,-2.592 5.04,-2.592 3.168,0 5.184,2.592 2.016,2.448 2.016,6.048 0,3.6 -2.16,6.048 -2.16,2.448 -5.04,2.448 z m 47.7114,83.664 q 4.464,0 6.192,-2.16 1.728,-2.304 2.016,-6.192 0.288,-4.032 0.288,-9.216 v -32.832 q 0,-2.304 0,-4.608 0.144,-2.304 0.576,-4.752 -2.592,0.144 -5.184,0.288 -2.448,0 -5.04,0.144 v -5.904 h 4.464 q 6.192,0 8.496,-1.152 2.448,-1.296 4.032,-2.736 h 4.176 q 0.288,2.304 0.432,5.76 0.144,3.312 0.288,8.496 2.16,-3.6 5.904,-7.056 3.744,-3.456 8.352,-5.76 4.752,-2.304 9.936,-2.304 4.032,0 7.056,2.16 3.024,2.16 3.024,6.912 0,1.152 -0.72,2.88 -0.72,1.584 -2.304,2.88 -1.584,1.152 -4.176,1.152 -3.168,-0.144 -5.04,-2.448 -1.872,-2.448 -1.44,-5.616 -3.6,-0.144 -7.488,1.872 -3.744,2.016 -7.056,5.616 -3.312,3.456 -5.904,8.208 l 0.144,35.424 q 0,2.88 -0.144,5.184 0,2.16 -0.432,4.608 2.304,-0.144 4.464,-0.144 2.304,-0.144 4.608,-0.288 v 5.904 h -29.52 z m 72.0949,0 q 4.464,0 6.192,-2.16 1.728,-2.304 2.016,-6.192 0.288,-4.032 0.288,-9.216 v -32.832 q 0,-2.304 0.144,-4.32 0.144,-2.16 0.432,-5.04 -2.592,0.144 -5.184,0.288 -2.448,0.144 -5.04,0.288 v -6.048 q 6.336,0 9.792,-0.576 3.456,-0.576 5.184,-1.44 1.872,-0.864 2.88,-1.872 h 4.176 v 58.176 q 0,2.88 -0.144,5.184 0,2.16 -0.432,4.608 2.304,-0.144 4.464,-0.144 2.304,-0.144 4.608,-0.288 v 5.904 h -29.376 z m 13.824,-83.376 q -3.024,0 -5.328,-2.448 -2.304,-2.448 -2.304,-6.048 0,-3.6 2.304,-6.048 2.448,-2.592 5.472,-2.592 3.312,0 5.472,2.592 2.304,2.448 2.304,6.048 0,3.6 -2.448,6.048 -2.304,2.448 -5.472,2.448 z m 12.5755,87.696 v -4.32 q 4.464,0 6.192,-2.16 1.728,-2.304 2.016,-6.192 0.288,-4.032 0.288,-9.216 l 0.144,-32.832 q 0,-2.304 0,-4.608 0.144,-2.304 0.576,-4.752 -2.592,0.144 -5.184,0.288 -2.448,0.144 -5.04,0.288 v -6.048 q 6.336,0 9.504,-0.576 3.312,-0.576 4.896,-1.44 1.584,-0.864 2.592,-1.872 h 4.176 q 0.144,1.008 0.144,2.304 0.144,1.296 0.288,2.88 0.144,1.584 0.144,3.6 3.168,-2.736 6.912,-4.896 3.888,-2.16 8.064,-3.456 4.32,-1.296 8.496,-1.296 12.528,0 18.288,7.92 5.76,7.776 5.76,24.336 v 26.784 q 0,2.88 -0.144,5.184 0,2.16 -0.432,4.608 2.304,-0.144 4.464,-0.144 2.304,-0.144 4.608,-0.288 v 5.904 h -29.376 v -4.32 q 4.464,0 6.192,-2.16 1.728,-2.304 2.016,-6.192 0.288,-4.032 0.288,-9.216 v -20.16 q -0.144,-12.384 -4.176,-18.72 -3.888,-6.336 -12.384,-6.192 -5.184,0.144 -10.224,2.736 -4.896,2.592 -8.208,6.624 0.144,1.152 0.144,2.592 0,1.44 0,3.024 l -0.144,36.72 q 0,2.88 -0.144,5.184 0,2.16 -0.432,4.608 2.304,-0.144 4.464,-0.144 2.304,-0.144 4.608,-0.288 v 5.904 z m 73.3435,0 v -4.32 q 4.464,0 6.192,-2.16 1.728,-2.304 2.016,-6.192 0.288,-4.032 0.288,-9.216 l 0.144,-32.832 q 0,-2.304 0,-4.608 0.144,-2.304 0.576,-4.752 -2.592,0.144 -5.184,0.288 -2.448,0.144 -5.04,0.288 v -6.048 q 6.336,0 9.504,-0.576 3.312,-0.576 4.896,-1.44 1.584,-0.864 2.592,-1.872 h 4.176 q 0.144,1.008 0.144,2.304 0.144,1.296 0.288,2.88 0.144,1.584 0.144,3.6 3.168,-2.736 6.912,-4.896 3.888,-2.16 8.064,-3.456 4.32,-1.296 8.496,-1.296 12.528,0 18.288,7.92 5.76,7.776 5.76,24.336 v 26.784 q 0,2.88 -0.144,5.184 0,2.16 -0.432,4.608 2.304,-0.144 4.464,-0.144 2.304,-0.144 4.608,-0.288 v 5.904 h -29.376 v -4.32 q 4.464,0 6.192,-2.16 1.728,-2.304 2.016,-6.192 0.288,-4.032 0.288,-9.216 v -20.16 q -0.144,-12.384 -4.176,-18.72 -3.888,-6.336 -12.384,-6.192 -5.184,0.144 -10.224,2.736 -4.896,2.592 -8.208,6.624 0.144,1.152 0.144,2.592 0,1.44 0,3.024 l -0.144,36.72 q 0,2.88 -0.144,5.184 0,2.16 -0.432,4.608 2.304,-0.144 4.464,-0.144 2.304,-0.144 4.608,-0.288 v 5.904 z m 108.1914,2.304 q -9.936,0 -18,-4.608 -7.92,-4.752 -12.528,-13.248 -4.608,-8.64 -4.608,-20.304 0,-10.08 4.464,-18.864 4.608,-8.784 12.816,-14.112 8.208,-5.472 19.008,-5.472 6.048,0 11.232,2.016 5.328,1.872 9.36,5.904 4.032,3.888 6.336,9.936 2.304,5.904 2.304,13.968 l -50.688,0.864 q 0,10.944 2.304,19.296 2.448,8.208 7.776,12.816 5.328,4.464 13.68,4.464 4.464,0 9.072,-1.584 4.752,-1.584 8.784,-4.32 4.032,-2.736 6.48,-6.048 l 3.456,2.88 q -3.888,6.048 -9.36,9.648 -5.472,3.6 -11.232,5.184 -5.76,1.584 -10.656,1.584 z m -19.872,-49.968 h 36.72 q 0,-5.184 -1.584,-9.936 -1.44,-4.896 -4.896,-7.92 -3.456,-3.168 -9.072,-3.168 -8.352,0 -13.968,5.04 -5.472,4.896 -7.2,15.984 z m 49.0073,43.344 q 4.464,0 6.192,-2.16 1.728,-2.304 2.016,-6.192 0.288,-4.032 0.288,-9.216 v -32.832 q 0,-2.304 0,-4.608 0.144,-2.304 0.576,-4.752 -2.592,0.144 -5.184,0.288 -2.448,0 -5.04,0.144 v -5.904 h 4.464 q 6.192,0 8.496,-1.152 2.448,-1.296 4.032,-2.736 h 4.176 q 0.288,2.304 0.432,5.76 0.144,3.312 0.288,8.496 2.16,-3.6 5.904,-7.056 3.744,-3.456 8.352,-5.76 4.752,-2.304 9.936,-2.304 4.032,0 7.056,2.16 3.024,2.16 3.024,6.912 0,1.152 -0.72,2.88 -0.72,1.584 -2.304,2.88 -1.584,1.152 -4.176,1.152 -3.168,-0.144 -5.04,-2.448 -1.872,-2.448 -1.44,-5.616 -3.6,-0.144 -7.488,1.872 -3.744,2.016 -7.056,5.616 -3.312,3.456 -5.904,8.208 l 0.144,35.424 q 0,2.88 -0.144,5.184 0,2.16 -0.432,4.608 2.304,-0.144 4.464,-0.144 2.304,-0.144 4.608,-0.288 v 5.904 h -29.52 z m 82.1275,6.624 q -9.936,0 -18,-4.608 -7.92,-4.752 -12.528,-13.248 -4.608,-8.64 -4.608,-20.304 0,-10.08 4.464,-18.864 4.608,-8.784 12.816,-14.112 8.208,-5.472 19.008,-5.472 6.048,0 11.232,2.016 5.328,1.872 9.36,5.904 4.032,3.888 6.336,9.936 2.304,5.904 2.304,13.968 l -50.688,0.864 q 0,10.944 2.304,19.296 2.448,8.208 7.776,12.816 5.328,4.464 13.68,4.464 4.464,0 9.072,-1.584 4.752,-1.584 8.784,-4.32 4.032,-2.736 6.48,-6.048 l 3.456,2.88 q -3.888,6.048 -9.36,9.648 -5.472,3.6 -11.232,5.184 -5.76,1.584 -10.656,1.584 z m -19.872,-49.968 h 36.72 q 0,-5.184 -1.584,-9.936 -1.44,-4.896 -4.896,-7.92 -3.456,-3.168 -9.072,-3.168 -8.352,0 -13.968,5.04 -5.472,4.896 -7.2,15.984 z m 130.9909,-22.608 q -0.432,-6.912 -3.312,-13.104 -2.88,-6.192 -8.352,-10.08 -5.472,-3.888 -13.968,-3.888 -8.928,0 -13.68,5.04 -4.752,5.04 -4.752,11.808 0,6.048 3.456,10.224 3.456,4.032 8.928,7.2 5.616,3.024 11.808,5.904 5.472,2.448 10.944,5.328 5.472,2.736 9.936,6.336 4.464,3.6 7.056,8.64 2.736,4.896 2.736,11.808 0,7.92 -4.032,14.112 -3.888,6.192 -11.376,9.792 -7.488,3.456 -18.288,3.456 -6.48,0 -13.392,-1.872 -6.912,-1.872 -12.24,-5.472 l 0.72,6.192 h -7.488 l -0.864,-30.672 h 5.616 q 0.72,12.672 8.784,19.296 8.064,6.48 19.44,6.48 5.616,0 10.368,-2.016 4.752,-2.16 7.488,-6.192 2.88,-4.032 2.88,-9.792 0,-6.48 -3.456,-10.8 -3.456,-4.32 -8.928,-7.488 -5.472,-3.168 -11.664,-6.048 -5.472,-2.448 -10.8,-5.184 -5.328,-2.736 -9.792,-6.192 -4.32,-3.6 -7.056,-8.496 -2.592,-4.896 -2.592,-11.808 0,-3.744 1.296,-8.064 1.296,-4.32 4.464,-8.208 3.312,-4.032 8.928,-6.48 5.76,-2.592 14.544,-2.592 5.472,0 12.24,1.584 6.912,1.44 12.816,5.76 l -0.576,-6.192 h 7.344 v 31.68 z m 35.9033,72.576 q -3.312,0 -6.768,-1.008 -3.456,-0.864 -6.48,-3.6 -2.88,-2.736 -4.608,-7.92 -1.728,-5.328 -1.728,-13.968 l 0.288,-41.76 -11.088,0.144 v -6.192 q 3.744,-0.144 7.632,-2.736 3.888,-2.736 6.912,-7.344 3.168,-4.608 4.32,-10.08 h 4.896 v 20.16 h 24.192 v 5.616 l -24.192,0.288 -0.288,40.032 q 0,6.48 1.008,11.088 1.152,4.464 3.6,6.768 2.448,2.304 6.336,2.304 4.032,0 7.488,-2.304 3.6,-2.304 6.336,-6.336 l 3.888,3.168 q -3.168,4.752 -6.336,7.488 -3.024,2.736 -5.904,4.032 -2.88,1.44 -5.328,1.728 -2.448,0.432 -4.176,0.432 z m 58.3673,-2.304 q -0.432,-2.448 -0.576,-4.32 -0.144,-1.872 -0.432,-3.888 -4.896,4.896 -10.656,7.776 -5.616,2.736 -11.952,2.736 -10.944,0 -16.272,-4.896 -5.328,-5.04 -5.328,-12.24 0,-6.624 4.032,-11.376 4.176,-4.896 10.656,-7.92 6.624,-3.168 14.256,-4.608 7.776,-1.584 14.976,-1.44 v -8.928 q 0,-5.04 -0.864,-9.504 -0.864,-4.464 -3.744,-7.344 -2.88,-2.88 -9.216,-3.024 -4.176,-0.144 -8.64,1.584 -4.32,1.728 -6.336,5.904 1.152,1.152 1.44,2.736 0.432,1.44 0.432,2.736 0,1.728 -1.44,4.032 -1.44,2.16 -5.04,2.016 -3.024,0 -4.608,-2.016 -1.584,-2.16 -1.584,-5.04 0,-4.896 3.6,-8.784 3.744,-3.888 10.224,-6.192 6.48,-2.304 14.688,-2.304 12.096,0 17.856,6.48 5.76,6.336 5.616,20.16 0,5.328 0,10.8 0,5.328 -0.144,10.8 0,5.328 0,10.8 0,2.304 -0.144,4.608 -0.144,2.304 -0.432,5.184 2.592,-0.144 5.04,-0.288 2.592,-0.144 5.184,-0.288 v 6.048 z m -1.296,-35.28 q -4.896,0.144 -10.368,1.296 -5.328,1.008 -9.936,3.168 -4.464,2.16 -7.344,5.76 -2.736,3.456 -2.592,8.496 0.288,5.328 3.456,8.064 3.312,2.592 7.776,2.592 5.904,0 10.224,-2.16 4.464,-2.304 8.784,-6.336 -0.144,-1.584 -0.144,-3.456 0,-1.872 0,-3.888 0,-0.72 0,-4.608 0.144,-3.888 0.144,-8.928 z m -0.72,-57.456 q -2.88,0 -5.04,-2.448 -2.16,-2.448 -2.16,-6.048 0,-3.6 2.16,-6.048 2.304,-2.592 5.04,-2.592 3.168,0 5.184,2.592 2.016,2.448 2.016,6.048 0,3.6 -2.16,6.048 -2.16,2.448 -5.04,2.448 z m -24.048,0 q -2.88,0 -5.04,-2.448 -2.16,-2.448 -2.16,-6.048 0,-3.6 2.16,-6.048 2.304,-2.592 5.04,-2.592 3.168,0 5.184,2.592 2.016,2.448 2.016,6.048 0,3.6 -2.16,6.048 -2.16,2.448 -5.04,2.448 z m 42.5276,88.416 q 4.464,0 6.192,-2.16 1.728,-2.304 2.016,-6.192 0.288,-4.032 0.288,-9.216 v -32.832 q 0,-2.304 0,-4.608 0.144,-2.304 0.576,-4.752 -2.592,0.144 -5.184,0.288 -2.448,0 -5.04,0.144 v -5.904 h 4.464 q 6.192,0 8.496,-1.152 2.448,-1.296 4.032,-2.736 h 4.176 q 0.288,2.304 0.432,5.76 0.144,3.312 0.288,8.496 2.16,-3.6 5.904,-7.056 3.744,-3.456 8.352,-5.76 4.752,-2.304 9.936,-2.304 4.032,0 7.056,2.16 3.024,2.16 3.024,6.912 0,1.152 -0.72,2.88 -0.72,1.584 -2.304,2.88 -1.584,1.152 -4.176,1.152 -3.168,-0.144 -5.04,-2.448 -1.872,-2.448 -1.44,-5.616 -3.6,-0.144 -7.488,1.872 -3.744,2.016 -7.056,5.616 -3.312,3.456 -5.904,8.208 l 0.144,35.424 q 0,2.88 -0.144,5.184 0,2.16 -0.432,4.608 2.304,-0.144 4.464,-0.144 2.304,-0.144 4.608,-0.288 v 5.904 h -29.52 z m 46.4154,4.32 v -4.32 q 4.464,0 6.048,-2.16 1.728,-2.304 2.016,-6.192 0.288,-4.032 0.288,-9.216 l 0.144,-68.112 q 0,-2.304 0,-4.32 0.144,-2.16 0.432,-5.04 -2.592,0.144 -5.184,0.288 -2.448,0.144 -5.04,0.288 v -6.048 q 6.336,0 9.792,-0.576 3.456,-0.576 5.184,-1.44 1.872,-0.864 2.88,-1.872 h 4.176 v 68.112 h 5.76 l 17.568,-18.432 q 2.448,-2.448 4.464,-4.32 2.016,-2.016 4.032,-3.312 l -9.792,0.432 v -5.76 h 26.208 v 4.32 q -4.896,0.432 -9.216,3.168 -4.176,2.592 -7.776,5.904 -3.456,3.312 -6.048,6.048 l -11.232,11.808 q 2.88,1.296 4.896,3.312 2.016,2.016 4.032,4.464 l 10.224,13.104 q 0.72,0.864 2.448,3.312 1.872,2.448 4.32,5.328 2.592,2.88 5.328,4.896 2.88,2.016 5.328,2.016 v 4.32 h -13.104 q -4.032,0 -7.632,-4.176 -3.6,-4.176 -7.632,-9.36 -3.744,-5.184 -6.768,-9.36 -2.88,-4.32 -5.328,-7.488 -2.304,-3.168 -4.176,-4.896 l -5.904,0.288 v 19.728 q 0,2.88 -0.144,5.184 0,2.16 -0.432,4.608 2.304,-0.144 4.608,-0.144 2.304,-0.144 4.608,-0.288 v 5.904 z m 98.3996,2.304 q -9.936,0 -18,-4.608 -7.92,-4.752 -12.528,-13.248 -4.608,-8.64 -4.608,-20.304 0,-10.08 4.464,-18.864 4.608,-8.784 12.816,-14.112 8.208,-5.472 19.008,-5.472 6.048,0 11.232,2.016 5.328,1.872 9.36,5.904 4.032,3.888 6.336,9.936 2.304,5.904 2.304,13.968 l -50.688,0.864 q 0,10.944 2.304,19.296 2.448,8.208 7.776,12.816 5.328,4.464 13.68,4.464 4.464,0 9.072,-1.584 4.752,-1.584 8.784,-4.32 4.032,-2.736 6.48,-6.048 l 3.456,2.88 q -3.888,6.048 -9.36,9.648 -5.472,3.6 -11.232,5.184 -5.76,1.584 -10.656,1.584 z m -19.872,-49.968 h 36.72 q 0,-5.184 -1.584,-9.936 -1.44,-4.896 -4.896,-7.92 -3.456,-3.168 -9.072,-3.168 -8.352,0 -13.968,5.04 -5.472,4.896 -7.2,15.984 z m 60.2393,49.968 q -3.312,0 -5.904,-2.592 -2.448,-2.736 -2.448,-6.624 0,-3.888 2.592,-6.624 2.592,-2.736 5.904,-2.736 3.6,0 5.904,2.736 2.448,2.736 2.448,6.624 0,3.888 -2.592,6.624 -2.592,2.592 -5.904,2.592 z"
       transform="matrix(0.75247855,0,0,0.75247855,2563.6875,1212.8646)" />
  </g>
</svg>
