<?xml version="1.0" encoding="UTF-8" standalone="no"?>
<svg width="974.55469" height="315.75366" viewBox="0 0 257.85092 83.543155" version="1.1" xmlns="http://www.w3.org/2000/svg">
  <g transform="translate(-14.442661,-888.19056)">
    <path style="fill:#ffffff;stroke:none" d="m -4153.0866,-330.18176 q -9.648,0 -17.856,-4.32 -8.064,-4.464 -12.96,-12.672 -4.752,-8.352 -4.752,-20.016 0,-7.488 2.736,-14.544 2.736,-7.056 7.632,-12.672 5.04,-5.76 11.952,-9.072 6.912,-3.312 15.264,-3.312 8.064,0 13.968,2.448 6.048,2.448 9.36,6.48 3.312,4.032 3.312,8.784 0,3.168 -1.728,5.472 -1.728,2.16 -5.04,2.16 -3.6,0.144 -5.184,-2.16 -1.44,-2.448 -1.44,-4.32 0,-1.44 0.432,-2.88 0.432,-1.584 1.728,-2.88 -1.152,-3.456 -4.032,-5.04 -2.88,-1.728 -6.048,-2.16 -3.024,-0.576 -5.04,-0.576 -9.792,0 -16.56,7.92 -6.624,7.776 -6.624,22.752 0,9.648 3.024,17.136 3.168,7.488 8.784,11.808 5.616,4.176 12.96,4.176 6.768,0 12.96,-3.6 6.192,-3.6 9.648,-8.784 l 3.744,2.88 q -3.744,6.048 -9.072,9.792 -5.184,3.744 -10.8,5.472 -5.472,1.728 -10.368,1.728 z m 70.8952,-2.304 q -0.432,-2.448 -0.576,-4.32 -0.144,-1.872 -0.432,-3.888 -4.896,4.896 -10.656,7.776 -5.616,2.736 -11.952,2.736 -10.944,0 -16.272,-4.896 -5.328,-5.04 -5.328,-12.24 0,-6.624 4.032,-11.376 4.176,-4.896 10.656,-7.92 6.624,-3.168 14.256,-4.608 7.776,-1.584 14.976,-1.44 v -8.928 q 0,-5.04 -0.864,-9.504 -0.864,-4.464 -3.744,-7.344 -2.88,-2.88 -9.216,-3.024 -4.176,-0.144 -8.64,1.584 -4.32,1.728 -6.336,5.904 1.152,1.152 1.44,2.736 0.432,1.44 0.432,2.736 0,1.728 -1.44,4.032 -1.44,2.16 -5.04,2.016 -3.024,0 -4.608,-2.016 -1.584,-2.16 -1.584,-5.04 0,-4.896 3.6,-8.784 3.744,-3.888 10.224,-6.192 6.48,-2.304 14.688,-2.304 12.096,0 17.856,6.48 5.76,6.336 5.616,20.16 0,5.328 0,10.8 0,5.328 -0.144,10.8 0,5.328 0,10.8 0,2.304 -0.144,4.608 -0.144,2.304 -0.432,5.184 2.592,-0.144 5.04,-0.288 2.592,-0.144 5.184,-0.288 v 6.048 z m -1.296,-35.28 q -4.896,0.144 -10.368,1.296 -5.328,1.008 -9.936,3.168 -4.464,2.16 -7.344,5.76 -2.736,3.456 -2.592,8.496 0.288,5.328 3.456,8.064 3.312,2.592 7.776,2.592 5.904,0 10.224,-2.16 4.464,-2.304 8.784,-6.336 -0.144,-1.584 -0.144,-3.456 0,-1.872 0,-3.888 0,-0.72 0,-4.608 0.144,-3.888 0.144,-8.928 z m 16.3195,30.96 q 4.464,0 6.192,-2.16 1.728,-2.304 2.016,-6.192 0.288,-4.032 0.288,-9.216 v -68.112 q 0,-2.304 0,-4.32 0.144,-2.16 0.432,-5.04 -2.592,0.144 -5.184,0.288 -2.448,0.144 -5.04,0.288 v -6.048 q 6.336,0 9.792,-0.576 3.6,-0.576 5.328,-1.44 1.872,-0.864 2.88,-1.872 h 4.176 l 0.144,93.456 q 0,2.88 -0.144,5.184 -0.144,2.16 -0.576,4.608 2.304,-0.144 4.464,-0.144 2.304,-0.144 4.608,-0.288 v 5.904 h -29.376 z m 26.5433,4.32 v -4.32 q 4.464,0 6.192,-2.16 1.728,-2.304 2.016,-6.192 0.288,-4.032 0.288,-9.216 v -32.832 q 0,-2.304 0,-4.608 0.144,-2.304 0.576,-4.752 -2.592,0.144 -5.184,0.288 -2.448,0.144 -5.04,0.288 v -6.048 q 6.336,0 9.504,-0.576 3.312,-0.576 4.896,-1.44 1.584,-0.864 2.592,-1.872 h 4.176 q 0.288,1.44 0.288,3.312 0.144,1.872 0.288,4.32 4.32,-3.744 9.936,-6.048 5.616,-2.448 11.232,-2.448 7.2,0 12.096,2.592 4.896,2.592 7.632,7.056 4.896,-4.032 11.232,-6.768 6.48,-2.88 12.672,-2.88 12.528,0 18.432,7.632 5.904,7.488 5.616,24.624 l -0.144,26.784 q 0,2.88 -0.144,5.184 0,2.16 -0.432,4.608 2.304,-0.144 4.464,-0.144 2.304,-0.144 4.608,-0.288 v 5.904 h -29.376 v -4.32 q 4.464,0 6.192,-2.16 1.728,-2.304 2.016,-6.192 0.288,-4.032 0.288,-9.216 v -20.16 q 0,-12.384 -4.032,-18.576 -3.888,-6.192 -12.384,-6.048 -4.464,0 -8.928,2.016 -4.464,2.016 -7.776,5.04 0.72,2.304 1.008,5.04 0.432,2.592 0.432,5.472 -0.144,8.352 -0.144,16.848 0,8.496 -0.144,16.992 0,2.88 -0.144,5.184 0,2.16 -0.432,4.608 2.304,-0.144 4.464,-0.144 2.304,-0.144 4.608,-0.288 v 5.904 h -29.376 v -4.32 q 4.464,0 6.048,-2.16 1.728,-2.304 2.016,-6.192 0.432,-4.032 0.432,-9.216 l 0.144,-20.16 q 0.144,-12.384 -3.6,-18.72 -3.744,-6.336 -12.24,-6.192 -4.464,0 -8.784,2.016 -4.32,1.872 -7.344,4.896 0,1.728 0,3.744 0.144,1.872 0.144,4.032 v 37.008 q 0,2.88 -0.144,5.184 0,2.16 -0.432,4.608 2.304,-0.144 4.464,-0.144 2.304,-0.144 4.608,-0.288 v 5.904 z m 158.4473,0 q -0.432,-2.448 -0.576,-4.32 -0.144,-1.872 -0.432,-3.888 -4.896,4.896 -10.656,7.776 -5.616,2.736 -11.952,2.736 -10.944,0 -16.272,-4.896 -5.328,-5.04 -5.328,-12.24 0,-6.624 4.032,-11.376 4.176,-4.896 10.656,-7.92 6.624,-3.168 14.256,-4.608 7.776,-1.584 14.976,-1.44 v -8.928 q 0,-5.04 -0.864,-9.504 -0.864,-4.464 -3.744,-7.344 -2.88,-2.88 -9.216,-3.024 -4.176,-0.144 -8.64,1.584 -4.32,1.728 -6.336,5.904 1.152,1.152 1.44,2.736 0.432,1.44 0.432,2.736 0,1.728 -1.44,4.032 -1.44,2.16 -5.04,2.016 -3.024,0 -4.608,-2.016 -1.584,-2.16 -1.584,-5.04 0,-4.896 3.6,-8.784 3.744,-3.888 10.224,-6.192 6.48,-2.304 14.688,-2.304 12.096,0 17.856,6.48 5.76,6.336 5.616,20.16 0,5.328 0,10.8 0,5.328 -0.144,10.8 0,5.328 0,10.8 0,2.304 -0.144,4.608 -0.144,2.304 -0.432,5.184 2.592,-0.144 5.04,-0.288 2.592,-0.144 5.184,-0.288 v 6.048 z m -1.296,-35.28 q -4.896,0.144 -10.368,1.296 -5.328,1.008 -9.936,3.168 -4.464,2.16 -7.344,5.76 -2.736,3.456 -2.592,8.496 0.288,5.328 3.456,8.064 3.312,2.592 7.776,2.592 5.904,0 10.224,-2.16 4.464,-2.304 8.784,-6.336 -0.144,-1.584 -0.144,-3.456 0,-1.872 0,-3.888 0,-0.72 0,-4.608 0.144,-3.888 0.144,-8.928 z m 28.9915,37.584 q -3.312,0 -5.904,-2.592 -2.448,-2.736 -2.448,-6.624 0,-3.888 2.592,-6.624 2.592,-2.736 5.904,-2.736 3.6,0 5.904,2.736 2.448,2.736 2.448,6.624 0,3.888 -2.592,6.624 -2.592,2.592 -5.904,2.592 z" transform="matrix(0.75247855,0,0,0.75247855,3166.3154,1220.1884)" />
  </g>
</svg>
