<?xml version="1.0" encoding="UTF-8" standalone="no"?>
<svg width="2434.812" height="422.23389" viewBox="0 0 644.21067 111.71605" version="1.1" xmlns="http://www.w3.org/2000/svg">
  <g transform="translate(479.99982,-1155.9151)">
    <path
       style="font-size:144px;font-family:Lora;-inkscape-font-specification:Lora;text-align:justify;letter-spacing:-14.0646px;white-space:pre;fill:#60a5fa;stroke-width:0.472441;paint-order:stroke fill markers"
       d="m -4153.0866,-330.18176 q -9.648,0 -17.856,-4.32 -8.064,-4.464 -12.96,-12.672 -4.752,-8.352 -4.752,-20.016 0,-7.488 2.736,-14.544 2.736,-7.056 7.632,-12.672 5.04,-5.76 11.952,-9.072 6.912,-3.312 15.264,-3.312 8.064,0 13.968,2.448 6.048,2.448 9.36,6.48 3.312,4.032 3.312,8.784 0,3.168 -1.728,5.472 -1.728,2.16 -5.04,2.16 -3.6,0.144 -5.184,-2.16 -1.44,-2.448 -1.44,-4.32 0,-1.44 0.432,-2.88 0.432,-1.584 1.728,-2.88 -1.152,-3.456 -4.032,-5.04 -2.88,-1.728 -6.048,-2.16 -3.024,-0.576 -5.04,-0.576 -9.792,0 -16.56,7.92 -6.624,7.776 -6.624,22.752 0,9.648 3.024,17.136 3.168,7.488 8.784,11.808 5.616,4.176 12.96,4.176 6.768,0 12.96,-3.6 6.192,-3.6 9.648,-8.784 l 3.744,2.88 q -3.744,6.048 -9.072,9.792 -5.184,3.744 -10.8,5.472 -5.472,1.728 -10.368,1.728 z m 73.6313,-6.624 q 4.464,0 6.192,-2.16 1.728,-2.304 2.016,-6.192 0.288,-4.032 0.288,-9.216 v -20.16 q 0,-12.384 -4.032,-18.576 -3.888,-6.192 -12.384,-6.048 -5.328,0.144 -10.512,2.592 -5.04,2.448 -8.208,6.336 v 42.48 q 0,2.88 -0.144,5.184 -0.144,2.16 -0.576,4.608 2.304,-0.144 4.464,-0.144 2.304,-0.144 4.608,-0.288 v 5.904 h -29.376 v -4.32 q 4.464,0 6.192,-2.16 1.728,-2.304 2.016,-6.192 0.432,-4.032 0.432,-9.216 v -68.112 q 0,-2.304 0,-4.32 0.144,-2.16 0.432,-5.04 -2.592,0.144 -5.184,0.288 -2.448,0.144 -5.04,0.288 v -6.048 q 6.336,0 9.792,-0.576 3.6,-0.576 5.328,-1.44 1.872,-0.864 2.88,-1.872 h 4.176 v 43.92 q 3.168,-2.736 7.056,-4.752 4.032,-2.16 8.208,-3.456 4.32,-1.296 8.352,-1.296 12.528,0 18,7.92 5.616,7.776 5.76,24.336 l 0.144,26.784 q 0,2.88 -0.144,5.184 0,2.16 -0.432,4.608 2.304,-0.144 4.464,-0.144 2.304,-0.144 4.608,-0.288 v 5.904 h -29.376 z m 69.7436,4.32 q -0.432,-2.448 -0.576,-4.32 -0.144,-1.872 -0.432,-3.888 -4.896,4.896 -10.656,7.776 -5.616,2.736 -11.952,2.736 -10.944,0 -16.272,-4.896 -5.328,-5.04 -5.328,-12.24 0,-6.624 4.032,-11.376 4.176,-4.896 10.656,-7.92 6.624,-3.168 14.256,-4.608 7.776,-1.584 14.976,-1.44 v -8.928 q 0,-5.04 -0.864,-9.504 -0.864,-4.464 -3.744,-7.344 -2.88,-2.88 -9.216,-3.024 -4.176,-0.144 -8.64,1.584 -4.32,1.728 -6.336,5.904 1.152,1.152 1.44,2.736 0.432,1.44 0.432,2.736 0,1.728 -1.44,4.032 -1.44,2.16 -5.04,2.016 -3.024,0 -4.608,-2.016 -1.584,-2.16 -1.584,-5.04 0,-4.896 3.6,-8.784 3.744,-3.888 10.224,-6.192 6.48,-2.304 14.688,-2.304 12.096,0 17.856,6.48 5.76,6.336 5.616,20.16 0,5.328 0,10.8 0,5.328 -0.144,10.8 0,5.328 0,10.8 0,2.304 -0.144,4.608 -0.144,2.304 -0.432,5.184 2.592,-0.144 5.04,-0.288 2.592,-0.144 5.184,-0.288 v 6.048 z m -1.296,-35.28 q -4.896,0.144 -10.368,1.296 -5.328,1.008 -9.936,3.168 -4.464,2.16 -7.344,5.76 -2.736,3.456 -2.592,8.496 0.288,5.328 3.456,8.064 3.312,2.592 7.776,2.592 5.904,0 10.224,-2.16 4.464,-2.304 8.784,-6.336 -0.144,-1.584 -0.144,-3.456 0,-1.872 0,-3.888 0,-0.72 0,-4.608 0.144,-3.888 0.144,-8.928 z m 53.4715,37.584 q -10.08,0 -18.288,-4.608 -8.208,-4.752 -13.104,-12.96 -4.752,-8.352 -4.752,-19.008 0,-11.376 4.752,-20.448 4.752,-9.072 12.96,-14.256 8.208,-5.328 18.432,-5.328 10.08,0 18.288,4.896 8.208,4.752 13.104,12.96 4.896,8.208 4.896,18.72 0,11.088 -4.896,20.304 -4.752,9.072 -12.96,14.4 -8.208,5.328 -18.432,5.328 z m 1.152,-5.76 q 7.632,0 12.096,-4.32 4.464,-4.32 6.336,-11.232 2.016,-6.912 2.016,-14.544 0,-6.48 -1.296,-12.672 -1.152,-6.336 -3.744,-11.376 -2.592,-5.184 -6.768,-8.208 -4.032,-3.024 -9.792,-3.024 -7.488,0 -12.24,4.32 -4.752,4.32 -7.056,11.232 -2.16,6.912 -2.16,14.832 0,8.928 2.448,16.992 2.448,7.92 7.488,12.96 5.04,5.04 12.672,5.04 z m 62.8313,5.76 q -7.2,0 -12.816,-2.016 -5.616,-1.872 -9.216,-4.32 l 0.576,5.04 h -6.048 l -0.864,-24.768 h 4.464 q 0.288,5.904 3.312,10.656 3.024,4.608 7.776,7.2 4.752,2.592 10.224,2.592 3.744,0 7.344,-1.152 3.6,-1.296 6.048,-3.744 2.448,-2.592 2.448,-6.48 0,-4.032 -2.448,-6.624 -2.304,-2.736 -6.192,-4.752 -3.888,-2.016 -8.352,-3.744 -4.32,-1.728 -8.64,-3.6 -4.32,-1.872 -8.064,-4.464 -3.6,-2.592 -5.76,-6.336 -2.16,-3.744 -2.16,-9.216 0,-3.024 1.152,-6.624 1.152,-3.6 3.888,-6.768 2.736,-3.312 7.488,-5.328 4.752,-2.16 12.096,-2.16 3.888,0 8.64,1.296 4.752,1.296 9.216,4.896 l -0.288,-5.472 h 6.048 v 25.2 h -4.608 q -0.288,-5.04 -2.304,-9.648 -2.016,-4.752 -5.904,-7.776 -3.888,-3.168 -10.08,-3.168 -6.624,0 -10.368,3.312 -3.744,3.312 -3.744,7.632 0,4.464 2.736,7.488 2.88,2.88 7.344,5.04 4.464,2.16 9.504,4.176 5.472,2.304 10.656,5.04 5.184,2.736 8.496,6.912 3.312,4.032 3.312,10.512 0,7.2 -3.744,11.952 -3.6,4.752 -9.36,6.912 -5.616,2.304 -11.808,2.304 z m 55.9667,-77.328 q 0,-15.984 5.76,-25.2 5.904,-9.216 20.16,-9.216 3.168,0 6.624,1.152 3.6,1.008 6.192,3.456 2.592,2.304 2.592,6.048 0,2.736 -1.584,4.608 -1.44,1.872 -4.32,1.872 -3.456,0.144 -4.896,-2.016 -1.296,-2.304 -1.296,-3.888 0,-0.864 0.144,-1.728 0.144,-0.864 0.576,-1.872 -1.008,-1.296 -2.88,-1.872 -1.728,-0.576 -3.312,-0.576 -4.464,0 -6.912,2.592 -2.448,2.592 -3.456,6.48 -1.008,3.888 -1.008,8.064 v 15.12 h 19.44 v 5.616 l -19.44,0.432 0.144,50.688 q 0,2.88 -0.144,5.184 0,2.16 -0.432,4.608 2.304,-0.144 4.464,-0.144 2.304,-0.144 4.608,-0.288 v 5.904 h -29.376 v -4.32 q 4.464,0 6.192,-2.16 1.728,-2.304 2.016,-6.192 0.288,-4.032 0.288,-9.216 l -0.144,-43.92 -11.808,0.288 v -6.48 h 11.808 z m 55.9193,77.328 q -7.776,0 -13.104,-2.88 -5.184,-2.88 -7.92,-9.792 -2.592,-6.912 -2.592,-18.72 v -25.632 q 0,-2.304 0,-4.608 0.144,-2.304 0.576,-4.752 -2.448,0.144 -5.04,0.288 -2.448,0 -4.896,0.144 v -5.904 h 4.464 q 6.192,0 8.928,-1.152 2.88,-1.296 4.464,-2.736 h 4.176 v 43.92 q 0,12.384 3.456,18.576 3.6,6.048 12.096,5.904 5.472,-0.144 10.368,-3.312 5.04,-3.312 8.064,-7.776 v -37.008 q 0,-3.456 0.144,-5.904 0.144,-2.592 0.576,-5.04 -2.592,0.144 -5.184,0.288 -2.592,0 -5.184,0.144 v -5.904 h 4.464 q 6.192,0 8.928,-1.152 2.88,-1.296 4.464,-2.736 h 4.176 l -0.144,54.432 q 0,2.304 -0.144,6.48 -0.144,4.176 -0.432,7.056 2.592,-0.144 5.184,-0.288 2.592,-0.144 5.184,-0.288 v 6.048 h -20.592 q -0.432,-2.448 -0.72,-4.608 -0.144,-2.16 -0.288,-4.032 -4.464,4.464 -10.8,7.776 -6.336,3.168 -12.672,3.168 z m 17.856,-90.288 q -2.88,0 -5.04,-2.448 -2.16,-2.448 -2.16,-6.048 0,-3.6 2.16,-6.048 2.304,-2.592 5.04,-2.592 3.168,0 5.184,2.592 2.016,2.448 2.016,6.048 0,3.6 -2.16,6.048 -2.16,2.448 -5.04,2.448 z m -24.048,0 q -2.88,0 -5.04,-2.448 -2.16,-2.448 -2.16,-6.048 0,-3.6 2.16,-6.048 2.304,-2.592 5.04,-2.592 3.168,0 5.184,2.592 2.016,2.448 2.016,6.048 0,3.6 -2.16,6.048 -2.16,2.448 -5.04,2.448 z m 47.7114,83.664 q 4.464,0 6.192,-2.16 1.728,-2.304 2.016,-6.192 0.288,-4.032 0.288,-9.216 v -32.832 q 0,-2.304 0,-4.608 0.144,-2.304 0.576,-4.752 -2.592,0.144 -5.184,0.288 -2.448,0 -5.04,0.144 v -5.904 h 4.464 q 6.192,0 8.496,-1.152 2.448,-1.296 4.032,-2.736 h 4.176 q 0.288,2.304 0.432,5.76 0.144,3.312 0.288,8.496 2.16,-3.6 5.904,-7.056 3.744,-3.456 8.352,-5.76 4.752,-2.304 9.936,-2.304 4.032,0 7.056,2.16 3.024,2.16 3.024,6.912 0,1.152 -0.72,2.88 -0.72,1.584 -2.304,2.88 -1.584,1.152 -4.176,1.152 -3.168,-0.144 -5.04,-2.448 -1.872,-2.448 -1.44,-5.616 -3.6,-0.144 -7.488,1.872 -3.744,2.016 -7.056,5.616 -3.312,3.456 -5.904,8.208 l 0.144,35.424 q 0,2.88 -0.144,5.184 0,2.16 -0.432,4.608 2.304,-0.144 4.464,-0.144 2.304,-0.144 4.608,-0.288 v 5.904 h -29.52 z m 73.679,4.32 v -4.752 q 5.472,-0.288 7.488,-2.448 2.016,-2.304 2.16,-6.192 0.288,-4.032 0.288,-9.072 v -62.208 q 0,-2.88 0.144,-5.472 0.144,-2.736 0.288,-4.896 -2.592,0.144 -5.184,0.288 -2.592,0.144 -5.184,0.288 v -6.336 h 66.816 l 0.72,25.2 h -4.752 q 0,-8.496 -2.736,-12.816 -2.736,-4.464 -7.2,-5.904 -4.464,-1.584 -9.936,-1.44 l -10.512,0.288 q -5.328,0.144 -7.344,2.592 -2.016,2.304 -2.304,6.192 -0.288,3.888 -0.288,8.928 v 24.768 l 25.056,0.144 -1.008,-12.528 h 6.336 v 30.384 h -4.608 q 0,-6.48 -1.872,-9.216 -1.728,-2.736 -5.472,-3.312 -3.744,-0.576 -9.792,-0.288 l -8.64,0.432 v 30.24 q 0,3.888 -0.144,6.768 0,2.736 -0.288,4.608 2.448,-0.144 4.896,-0.144 2.448,-0.144 4.896,-0.288 2.448,-0.144 4.896,-0.144 v 6.336 z m 61.8235,-4.32 q 4.464,0 6.192,-2.16 1.728,-2.304 2.016,-6.192 0.288,-4.032 0.288,-9.216 v -68.112 q 0,-2.304 0,-4.32 0.144,-2.16 0.432,-5.04 -2.592,0.144 -5.184,0.288 -2.448,0.144 -5.04,0.288 v -6.048 q 6.336,0 9.792,-0.576 3.6,-0.576 5.328,-1.44 1.872,-0.864 2.88,-1.872 h 4.176 l 0.144,93.456 q 0,2.88 -0.144,5.184 -0.144,2.16 -0.576,4.608 2.304,-0.144 4.464,-0.144 2.304,-0.144 4.608,-0.288 v 5.904 h -29.376 z m 56.9273,6.624 q -7.776,0 -13.104,-2.88 -5.184,-2.88 -7.92,-9.792 -2.592,-6.912 -2.592,-18.72 v -25.632 q 0,-2.304 0,-4.608 0.144,-2.304 0.576,-4.752 -2.448,0.144 -5.04,0.288 -2.448,0 -4.896,0.144 v -5.904 h 4.464 q 6.192,0 8.928,-1.152 2.88,-1.296 4.464,-2.736 h 4.176 v 43.92 q 0,12.384 3.456,18.576 3.6,6.048 12.096,5.904 5.472,-0.144 10.368,-3.312 5.04,-3.312 8.064,-7.776 v -37.008 q 0,-3.456 0.144,-5.904 0.144,-2.592 0.576,-5.04 -2.592,0.144 -5.184,0.288 -2.592,0 -5.184,0.144 v -5.904 h 4.464 q 6.192,0 8.928,-1.152 2.88,-1.296 4.464,-2.736 h 4.176 l -0.144,54.432 q 0,2.304 -0.144,6.48 -0.144,4.176 -0.432,7.056 2.592,-0.144 5.184,-0.288 2.592,-0.144 5.184,-0.288 v 6.048 h -20.592 q -0.432,-2.448 -0.72,-4.608 -0.144,-2.16 -0.288,-4.032 -4.464,4.464 -10.8,7.776 -6.336,3.168 -12.672,3.168 z m 17.856,-90.288 q -2.88,0 -5.04,-2.448 -2.16,-2.448 -2.16,-6.048 0,-3.6 2.16,-6.048 2.304,-2.592 5.04,-2.592 3.168,0 5.184,2.592 2.016,2.448 2.016,6.048 0,3.6 -2.16,6.048 -2.16,2.448 -5.04,2.448 z m -24.048,0 q -2.88,0 -5.04,-2.448 -2.16,-2.448 -2.16,-6.048 0,-3.6 2.16,-6.048 2.304,-2.592 5.04,-2.592 3.168,0 5.184,2.592 2.016,2.448 2.016,6.048 0,3.6 -2.16,6.048 -2.16,2.448 -5.04,2.448 z m 82.4154,127.008 q -12.96,0 -20.88,-2.88 -7.92,-2.88 -11.52,-7.344 -3.6,-4.464 -3.6,-9.216 0,-4.464 2.016,-7.92 2.16,-3.312 5.184,-5.76 3.168,-2.448 6.048,-3.6 -4.608,-1.584 -7.344,-4.176 -2.592,-2.736 -2.592,-7.2 0,-5.04 4.032,-9.36 4.032,-4.464 10.368,-5.472 -6.624,-3.168 -10.656,-8.784 -3.888,-5.616 -3.888,-13.104 0,-8.64 4.464,-14.976 4.464,-6.48 11.376,-9.936 7.056,-3.6 14.544,-3.6 4.752,0 9.504,1.44 4.752,1.296 8.784,3.888 1.44,-4.032 4.032,-7.2 2.736,-3.168 6.192,-4.896 3.456,-1.872 7.2,-1.872 3.744,0 5.616,2.016 2.016,1.872 2.016,5.184 0,1.008 -0.576,2.448 -0.576,1.44 -2.016,2.448 -1.296,1.008 -3.6,1.008 -2.448,0 -4.032,-1.44 -1.584,-1.44 -2.016,-3.6 -3.6,0.576 -5.616,3.456 -2.016,2.736 -2.736,6.048 3.456,3.168 5.472,7.632 2.16,4.464 2.16,9.504 0,8.064 -4.32,14.4 -4.176,6.336 -11.088,9.936 -6.912,3.456 -14.976,3.456 -2.736,0 -4.752,-0.288 -2.016,-0.432 -4.896,-0.432 -5.328,0 -8.64,2.592 -3.312,2.592 -2.304,6.192 1.152,3.456 7.056,4.464 5.904,0.864 15.84,1.296 11.088,0.432 19.008,2.592 7.92,2.16 12.096,6.624 4.32,4.608 4.32,12.384 0,5.76 -3.168,10.224 -3.024,4.608 -8.208,7.632 -5.04,3.024 -11.376,4.608 -6.192,1.584 -12.528,1.584 z m -0.144,-5.616 q 12.384,0 19.296,-4.608 6.912,-4.608 6.912,-10.8 0,-5.328 -3.6,-8.208 -3.6,-2.736 -9.792,-3.888 -6.192,-1.008 -14.256,-1.152 -3.888,-0.144 -7.632,-0.432 -3.744,-0.144 -7.2,-0.72 -3.888,2.592 -6.048,6.336 -2.16,3.744 -2.16,7.92 0,7.056 6.624,11.232 6.768,4.32 17.856,4.32 z m -1.872,-59.04 q 5.328,0 8.784,-2.592 3.6,-2.592 5.328,-7.056 1.872,-4.464 1.872,-10.08 0,-6.336 -1.872,-11.808 -1.872,-5.472 -5.616,-8.784 -3.6,-3.312 -9.216,-3.312 -7.776,0 -12.096,5.904 -4.176,5.76 -4.176,14.4 0,6.912 2.016,12.24 2.016,5.184 5.76,8.208 3.888,2.88 9.216,2.88 z m 67.0074,27.936 q -9.936,0 -18,-4.608 -7.92,-4.752 -12.528,-13.248 -4.608,-8.64 -4.608,-20.304 0,-10.08 4.464,-18.864 4.608,-8.784 12.816,-14.112 8.208,-5.472 19.008,-5.472 6.048,0 11.232,2.016 5.328,1.872 9.36,5.904 4.032,3.888 6.336,9.936 2.304,5.904 2.304,13.968 l -50.688,0.864 q 0,10.944 2.304,19.296 2.448,8.208 7.776,12.816 5.328,4.464 13.68,4.464 4.464,0 9.072,-1.584 4.752,-1.584 8.784,-4.32 4.032,-2.736 6.48,-6.048 l 3.456,2.88 q -3.888,6.048 -9.36,9.648 -5.472,3.6 -11.232,5.184 -5.76,1.584 -10.656,1.584 z m -19.872,-49.968 h 36.72 q 0,-5.184 -1.584,-9.936 -1.44,-4.896 -4.896,-7.92 -3.456,-3.168 -9.072,-3.168 -8.352,0 -13.968,5.04 -5.472,4.896 -7.2,15.984 z m 47.5674,43.344 q 4.464,0 6.192,-2.16 1.728,-2.304 2.016,-6.192 0.288,-4.032 0.288,-9.216 v -68.112 q 0,-2.304 0,-4.32 0.144,-2.16 0.432,-5.04 -2.592,0.144 -5.184,0.288 -2.448,0.144 -5.04,0.288 v -6.048 q 6.336,0 9.792,-0.576 3.6,-0.576 5.328,-1.44 1.872,-0.864 2.88,-1.872 h 4.176 l 0.144,93.456 q 0,2.88 -0.144,5.184 -0.144,2.16 -0.576,4.608 2.304,-0.144 4.464,-0.144 2.304,-0.144 4.608,-0.288 v 5.904 h -29.376 z m 37.7753,6.624 q -3.312,0 -5.904,-2.592 -2.448,-2.736 -2.448,-6.624 0,-3.888 2.592,-6.624 2.592,-2.736 5.904,-2.736 3.6,0 5.904,2.736 2.448,2.736 2.448,6.624 0,3.888 -2.592,6.624 -2.592,2.592 -5.904,2.592 z"
       transform="matrix(0.75247855,0,0,0.75247855,2671.8729,1488.4548)" />
  </g>
</svg>
