<?xml version="1.0" encoding="UTF-8" standalone="no"?>
<svg width="2584.1587" height="315.75391" viewBox="0 0 683.72531 83.54322" version="1.1" xmlns="http://www.w3.org/2000/svg">
  <g transform="translate(318.48285,-1359.9999)">
    <path
       style="font-size:144px;font-family:Lora;-inkscape-font-specification:Lora;text-align:justify;letter-spacing:-14.0646px;white-space:pre;fill:#60a5fa;stroke-width:0.472441;paint-order:stroke fill markers"
       d="m -4186.6386,-332.48576 v -4.752 q 5.472,-0.288 7.488,-2.448 2.016,-2.304 2.16,-6.192 0.288,-4.032 0.288,-9.072 v -62.208 q 0,-2.88 0.144,-5.472 0.144,-2.736 0.288,-4.896 -2.592,0.144 -5.184,0.288 -2.592,0.144 -5.184,0.288 v -6.336 h 32.4 v 4.752 q -5.328,0.144 -7.488,2.448 -2.016,2.304 -2.304,6.192 -0.144,3.888 -0.144,9.072 v 61.776 q 0,3.888 -0.144,6.624 0,2.736 -0.288,4.608 l 26.928,-0.432 q 9.072,-0.144 13.68,-5.76 4.752,-5.616 4.752,-18.288 h 4.896 l -0.864,29.808 z m 102.4313,2.304 q -9.936,0 -18,-4.608 -7.92,-4.752 -12.528,-13.248 -4.608,-8.64 -4.608,-20.304 0,-10.08 4.464,-18.864 4.608,-8.784 12.816,-14.112 8.208,-5.472 19.008,-5.472 6.048,0 11.232,2.016 5.328,1.872 9.36,5.904 4.032,3.888 6.336,9.936 2.304,5.904 2.304,13.968 l -50.688,0.864 q 0,10.944 2.304,19.296 2.448,8.208 7.776,12.816 5.328,4.464 13.68,4.464 4.464,0 9.072,-1.584 4.752,-1.584 8.784,-4.32 4.032,-2.736 6.48,-6.048 l 3.456,2.88 q -3.888,6.048 -9.36,9.648 -5.472,3.6 -11.232,5.184 -5.76,1.584 -10.656,1.584 z m -19.872,-49.968 h 36.72 q 0,-5.184 -1.584,-9.936 -1.44,-4.896 -4.896,-7.92 -3.456,-3.168 -9.072,-3.168 -8.352,0 -13.968,5.04 -5.472,4.896 -7.2,15.984 z m 53.6154,-42.336 q 0,-2.304 0,-4.32 0.144,-2.16 0.432,-5.04 -2.592,0.144 -5.184,0.288 -2.448,0.144 -5.04,0.288 v -6.048 q 6.336,0 9.792,-0.576 3.6,-0.576 5.328,-1.44 1.872,-0.864 2.88,-1.872 h 4.176 v 42.912 q 4.032,-4.032 9.504,-6.192 5.616,-2.304 12.24,-2.304 9.216,0 16.56,4.464 7.488,4.464 11.808,12.672 4.32,8.208 4.32,19.44 0,12.24 -5.328,21.312 -5.328,8.928 -13.824,13.824 -8.496,4.896 -18.288,4.896 -4.896,0 -10.8,-1.872 -5.76,-1.728 -10.368,-6.912 l -3.456,6.48 h -5.04 z m 12.384,67.392 q 0,7.632 2.448,11.808 2.448,4.032 6.336,5.616 3.888,1.584 8.208,1.584 6.912,0 11.952,-3.888 5.04,-3.888 7.776,-10.656 2.88,-6.912 2.88,-15.984 0,-9.792 -2.448,-17.136 -2.448,-7.488 -7.344,-11.664 -4.896,-4.32 -12.384,-4.32 -4.752,0 -9.504,2.304 -4.608,2.16 -7.92,5.904 z m 87.5995,24.912 q -9.936,0 -18,-4.608 -7.92,-4.752 -12.528,-13.248 -4.608,-8.64 -4.608,-20.304 0,-10.08 4.464,-18.864 4.608,-8.784 12.816,-14.112 8.208,-5.472 19.008,-5.472 6.048,0 11.232,2.016 5.328,1.872 9.36,5.904 4.032,3.888 6.336,9.936 2.304,5.904 2.304,13.968 l -50.688,0.864 q 0,10.944 2.304,19.296 2.448,8.208 7.776,12.816 5.328,4.464 13.68,4.464 4.464,0 9.072,-1.584 4.752,-1.584 8.784,-4.32 4.032,-2.736 6.48,-6.048 l 3.456,2.88 q -3.888,6.048 -9.36,9.648 -5.472,3.6 -11.232,5.184 -5.76,1.584 -10.656,1.584 z m -19.872,-49.968 h 36.72 q 0,-5.184 -1.584,-9.936 -1.44,-4.896 -4.896,-7.92 -3.456,-3.168 -9.072,-3.168 -8.352,0 -13.968,5.04 -5.472,4.896 -7.2,15.984 z m 103.6308,49.968 q -8.784,0 -15.84,-4.32 -7.056,-4.464 -11.232,-12.672 -4.032,-8.208 -4.032,-19.296 0,-11.808 4.752,-20.88 4.752,-9.072 13.104,-14.256 8.496,-5.184 19.152,-5.184 4.752,0 9.36,1.296 4.752,1.152 7.488,2.736 v -19.728 q 0,-2.304 0,-4.32 0.144,-2.16 0.432,-5.04 -2.592,0.144 -5.184,0.288 -2.448,0.144 -5.04,0.288 v -6.048 q 6.336,0 9.792,-0.576 3.456,-0.576 5.184,-1.44 1.872,-0.864 2.88,-1.872 h 4.176 v 93.456 q 0,2.304 -0.144,4.608 -0.144,2.304 -0.432,5.184 2.592,-0.144 5.04,-0.288 2.592,-0.144 5.184,-0.288 v 6.048 h -20.592 q -0.432,-2.16 -0.72,-3.888 -0.144,-1.872 -0.288,-3.6 -4.032,4.464 -9.936,7.2 -5.904,2.592 -13.104,2.592 z m 5.184,-7.056 q 4.752,0 9.504,-2.736 4.896,-2.736 8.064,-6.768 -0.144,-1.728 -0.144,-3.6 0,-2.016 0,-4.32 l 0.144,-41.472 q -3.456,-2.592 -7.632,-3.744 -4.032,-1.296 -8.352,-1.296 -7.2,0 -12.528,4.176 -5.328,4.176 -8.064,11.664 -2.736,7.488 -2.448,17.568 0.288,8.784 2.736,15.696 2.592,6.912 7.2,10.944 4.752,3.888 11.52,3.888 z m 70.8953,7.056 q -9.936,0 -18,-4.608 -7.92,-4.752 -12.528,-13.248 -4.608,-8.64 -4.608,-20.304 0,-10.08 4.464,-18.864 4.608,-8.784 12.816,-14.112 8.208,-5.472 19.008,-5.472 6.048,0 11.232,2.016 5.328,1.872 9.36,5.904 4.032,3.888 6.336,9.936 2.304,5.904 2.304,13.968 l -50.688,0.864 q 0,10.944 2.304,19.296 2.448,8.208 7.776,12.816 5.328,4.464 13.68,4.464 4.464,0 9.072,-1.584 4.752,-1.584 8.784,-4.32 4.032,-2.736 6.48,-6.048 l 3.456,2.88 q -3.888,6.048 -9.36,9.648 -5.472,3.6 -11.232,5.184 -5.76,1.584 -10.656,1.584 z m -19.872,-49.968 h 36.72 q 0,-5.184 -1.584,-9.936 -1.44,-4.896 -4.896,-7.92 -3.456,-3.168 -9.072,-3.168 -8.352,0 -13.968,5.04 -5.472,4.896 -7.2,15.984 z m 49.0074,43.344 q 4.464,0 6.192,-2.16 1.728,-2.304 2.016,-6.192 0.288,-4.032 0.288,-9.216 v -32.832 q 0,-2.304 0.144,-4.32 0.144,-2.16 0.432,-5.04 -2.592,0.144 -5.184,0.288 -2.448,0.144 -5.04,0.288 v -6.048 q 6.336,0 9.792,-0.576 3.456,-0.576 5.184,-1.44 1.872,-0.864 2.88,-1.872 h 4.176 v 58.176 q 0,2.88 -0.144,5.184 0,2.16 -0.432,4.608 2.304,-0.144 4.464,-0.144 2.304,-0.144 4.608,-0.288 v 5.904 h -29.376 z m 13.824,-83.376 q -3.024,0 -5.328,-2.448 -2.304,-2.448 -2.304,-6.048 0,-3.6 2.304,-6.048 2.448,-2.592 5.472,-2.592 3.312,0 5.472,2.592 2.304,2.448 2.304,6.048 0,3.6 -2.448,6.048 -2.304,2.448 -5.472,2.448 z m 12.5754,87.696 v -4.32 q 4.464,0 6.192,-2.16 1.728,-2.304 2.016,-6.192 0.288,-4.032 0.288,-9.216 l 0.144,-32.832 q 0,-2.304 0,-4.608 0.144,-2.304 0.576,-4.752 -2.592,0.144 -5.184,0.288 -2.448,0.144 -5.04,0.288 v -6.048 q 6.336,0 9.504,-0.576 3.312,-0.576 4.896,-1.44 1.584,-0.864 2.592,-1.872 h 4.176 q 0.144,1.008 0.144,2.304 0.144,1.296 0.288,2.88 0.144,1.584 0.144,3.6 3.168,-2.736 6.912,-4.896 3.888,-2.16 8.064,-3.456 4.32,-1.296 8.496,-1.296 12.528,0 18.288,7.92 5.76,7.776 5.76,24.336 v 26.784 q 0,2.88 -0.144,5.184 0,2.16 -0.432,4.608 2.304,-0.144 4.464,-0.144 2.304,-0.144 4.608,-0.288 v 5.904 h -29.376 v -4.32 q 4.464,0 6.192,-2.16 1.728,-2.304 2.016,-6.192 0.288,-4.032 0.288,-9.216 v -20.16 q -0.144,-12.384 -4.176,-18.72 -3.888,-6.336 -12.384,-6.192 -5.184,0.144 -10.224,2.736 -4.896,2.592 -8.208,6.624 0.144,1.152 0.144,2.592 0,1.44 0,3.024 l -0.144,36.72 q 0,2.88 -0.144,5.184 0,2.16 -0.432,4.608 2.304,-0.144 4.464,-0.144 2.304,-0.144 4.608,-0.288 v 5.904 z m 98.735,0 v -4.752 q 5.472,-0.288 7.488,-2.448 2.016,-2.304 2.16,-6.192 0.288,-4.032 0.288,-9.072 v -62.208 q 0,-2.88 0.144,-5.472 0.144,-2.736 0.288,-4.896 -2.592,0.144 -5.184,0.288 -2.592,0.144 -5.184,0.288 v -6.336 h 32.4 v 4.752 q -5.328,0.144 -7.488,2.448 -2.016,2.304 -2.304,6.192 -0.144,3.888 -0.144,9.072 v 61.776 q 0,3.888 -0.144,6.624 0,2.736 -0.288,4.608 l 26.928,-0.432 q 9.072,-0.144 13.68,-5.76 4.752,-5.616 4.752,-18.288 h 4.896 l -0.864,29.808 z m 102.4313,2.304 q -9.936,0 -18,-4.608 -7.92,-4.752 -12.528,-13.248 -4.608,-8.64 -4.608,-20.304 0,-10.08 4.464,-18.864 4.608,-8.784 12.816,-14.112 8.208,-5.472 19.008,-5.472 6.048,0 11.232,2.016 5.328,1.872 9.36,5.904 4.032,3.888 6.336,9.936 2.304,5.904 2.304,13.968 l -50.688,0.864 q 0,10.944 2.304,19.296 2.448,8.208 7.776,12.816 5.328,4.464 13.68,4.464 4.464,0 9.072,-1.584 4.752,-1.584 8.784,-4.32 4.032,-2.736 6.48,-6.048 l 3.456,2.88 q -3.888,6.048 -9.36,9.648 -5.472,3.6 -11.232,5.184 -5.76,1.584 -10.656,1.584 z m -19.872,-49.968 h 36.72 q 0,-5.184 -1.584,-9.936 -1.44,-4.896 -4.896,-7.92 -3.456,-3.168 -9.072,-3.168 -8.352,0 -13.968,5.04 -5.472,4.896 -7.2,15.984 z m 53.6153,-42.336 q 0,-2.304 0,-4.32 0.144,-2.16 0.432,-5.04 -2.592,0.144 -5.184,0.288 -2.448,0.144 -5.04,0.288 v -6.048 q 6.336,0 9.792,-0.576 3.6,-0.576 5.328,-1.44 1.872,-0.864 2.88,-1.872 h 4.176 v 42.912 q 4.032,-4.032 9.504,-6.192 5.616,-2.304 12.24,-2.304 9.216,0 16.56,4.464 7.488,4.464 11.808,12.672 4.32,8.208 4.32,19.44 0,12.24 -5.328,21.312 -5.328,8.928 -13.824,13.824 -8.496,4.896 -18.288,4.896 -4.896,0 -10.8,-1.872 -5.76,-1.728 -10.368,-6.912 l -3.456,6.48 h -5.04 z m 12.384,67.392 q 0,7.632 2.448,11.808 2.448,4.032 6.336,5.616 3.888,1.584 8.208,1.584 6.912,0 11.952,-3.888 5.04,-3.888 7.776,-10.656 2.88,-6.912 2.88,-15.984 0,-9.792 -2.448,-17.136 -2.448,-7.488 -7.344,-11.664 -4.896,-4.32 -12.384,-4.32 -4.752,0 -9.504,2.304 -4.608,2.16 -7.92,5.904 z m 87.5995,24.912 q -9.936,0 -18,-4.608 -7.92,-4.752 -12.528,-13.248 -4.608,-8.64 -4.608,-20.304 0,-10.08 4.464,-18.864 4.608,-8.784 12.816,-14.112 8.208,-5.472 19.008,-5.472 6.048,0 11.232,2.016 5.328,1.872 9.36,5.904 4.032,3.888 6.336,9.936 2.304,5.904 2.304,13.968 l -50.688,0.864 q 0,10.944 2.304,19.296 2.448,8.208 7.776,12.816 5.328,4.464 13.68,4.464 4.464,0 9.072,-1.584 4.752,-1.584 8.784,-4.32 4.032,-2.736 6.48,-6.048 l 3.456,2.88 q -3.888,6.048 -9.36,9.648 -5.472,3.6 -11.232,5.184 -5.76,1.584 -10.656,1.584 z m -19.872,-49.968 h 36.72 q 0,-5.184 -1.584,-9.936 -1.44,-4.896 -4.896,-7.92 -3.456,-3.168 -9.072,-3.168 -8.352,0 -13.968,5.04 -5.472,4.896 -7.2,15.984 z m 49.0074,47.664 v -4.32 q 4.464,0 6.192,-2.16 1.728,-2.304 2.016,-6.192 0.288,-4.032 0.288,-9.216 l 0.144,-32.832 q 0,-2.304 0,-4.608 0.144,-2.304 0.576,-4.752 -2.592,0.144 -5.184,0.288 -2.448,0.144 -5.04,0.288 v -6.048 q 6.336,0 9.504,-0.576 3.312,-0.576 4.896,-1.44 1.584,-0.864 2.592,-1.872 h 4.176 q 0.144,1.008 0.144,2.304 0.144,1.296 0.288,2.88 0.144,1.584 0.144,3.6 3.168,-2.736 6.912,-4.896 3.888,-2.16 8.064,-3.456 4.32,-1.296 8.496,-1.296 12.528,0 18.288,7.92 5.76,7.776 5.76,24.336 v 26.784 q 0,2.88 -0.144,5.184 0,2.16 -0.432,4.608 2.304,-0.144 4.464,-0.144 2.304,-0.144 4.608,-0.288 v 5.904 h -29.376 v -4.32 q 4.464,0 6.192,-2.16 1.728,-2.304 2.016,-6.192 0.288,-4.032 0.288,-9.216 v -20.16 q -0.144,-12.384 -4.176,-18.72 -3.888,-6.336 -12.384,-6.192 -5.184,0.144 -10.224,2.736 -4.896,2.592 -8.208,6.624 0.144,1.152 0.144,2.592 0,1.44 0,3.024 l -0.144,36.72 q 0,2.88 -0.144,5.184 0,2.16 -0.432,4.608 2.304,-0.144 4.464,-0.144 2.304,-0.144 4.608,-0.288 v 5.904 z m 84.5754,2.304 q -3.312,0 -5.904,-2.592 -2.448,-2.736 -2.448,-6.624 0,-3.888 2.592,-6.624 2.592,-2.736 5.904,-2.736 3.6,0 5.904,2.736 2.448,2.736 2.448,6.624 0,3.888 -2.592,6.624 -2.592,2.592 -5.904,2.592 z"
       transform="matrix(0.75247855,0,0,0.75247855,2831.8729,1691.9978)" />
  </g>
</svg>
