<?xml version="1.0" encoding="UTF-8" standalone="no"?>
<svg width="765.00006" height="1000.0001" viewBox="0 0 202.40626 264.58335" version="1.1" xmlns="http://www.w3.org/2000/svg">
  <g>
    <path d="M 44.979166,0 A 44.979171,44.979171 0 0 0 1.8764649e-6,44.979167 H 22.489583 A 22.489585,22.489585 0 0 1 44.979166,22.489584 22.489585,22.489585 0 0 1 67.46875,44.979167 H 89.958336 A 44.979171,44.979171 0 0 0 44.979166,0 Z" style="fill:#60a5fa;fill-opacity:1;stroke:none" />
    <path d="M 44.979166,264.58334 A 44.979171,44.979171 0 0 1 1.8764649e-6,219.60417 H 22.489583 a 22.489585,22.489585 0 0 0 22.489583,22.48959 22.489585,22.489585 0 0 0 22.489584,-22.48959 h 22.489586 a 44.979171,44.979171 0 0 1 -44.97917,44.97917 z" style="fill:#60a5fa;fill-opacity:1;stroke:none" />
    <rect style="fill:#60a5fa;fill-opacity:1;stroke:none" width="22.489584" height="174.625" x="67.46875" y="44.979168" />
    <rect style="fill:#60a5fa;fill-opacity:1;stroke:none" width="22.489584" height="10.583333" x="0" y="44.979168" />
    <rect style="fill:#60a5fa;fill-opacity:1;stroke:none" width="22.489584" height="10.583333" x="0" y="209.02083" />
    <path d="m 157.42709,0 a 44.979171,44.979171 0 0 1 44.97917,44.97917 H 179.91668 A 22.489585,22.489585 0 0 0 157.42709,22.48958 22.489585,22.489585 0 0 0 134.93751,44.97917 H 112.44792 A 44.979171,44.979171 0 0 1 157.42709,0 Z" style="fill:#60a5fa;fill-opacity:1;stroke:none" />
    <path d="m 157.42709,264.58334 a 44.979171,44.979171 0 0 0 44.97917,-44.97917 h -22.48958 a 22.489585,22.489585 0 0 1 -22.48959,22.48959 22.489585,22.489585 0 0 1 -22.48958,-22.48959 h -22.48959 a 44.979171,44.979171 0 0 0 44.97917,44.97917 z" style="fill:#60a5fa;fill-opacity:1;stroke:none" />
    <rect style="fill:#60a5fa;fill-opacity:1;stroke:none" width="22.489584" height="174.625" x="-134.9375" y="44.97916" transform="scale(-1,1)" />
    <rect style="fill:#60a5fa;fill-opacity:1;stroke:none" width="22.489584" height="10.583333" x="-202.40627" y="44.97916" transform="scale(-1,1)" />
    <rect style="fill:#60a5fa;fill-opacity:1;stroke:none" width="22.489584" height="10.583333" x="-202.40627" y="209.02083" transform="scale(-1,1)" />
  </g>
</svg>
